<svg xmlns="http://www.w3.org/2000/svg" viewBox="0 0 298 375"><path fill="#344b56" d="M0 0h298v375H0z"/><g fill-opacity=".5"><path fill="#72e2ff" d="M321.5 142.8 122.3 28.6-22.7 150z"/><path fill="#003735" d="m295.2 397.7-318-44L321.6 97.5z"/><path fill="#0058a6" d="m279 24.2-301.7 7.3 344.2 101z"/><path fill="#004c56" d="M150.1 115-22.7 260l344.2 85z"/><path fill="#6fb1de" d="m270.3 90-293-30.7L50.5 156z"/><path fill="#00262d" d="m-22.7 123.8 24.9 274 111.3-171.5z"/><path fill="#002e5b" d="M-15.4 90 5.1-22.6 321.5 3.7z"/><path fill="#005989" d="m154.5 128.2-177.2 58.6 288.6 5.8z"/><path fill="#b3e3f8" d="M229.2 153 97.4 106.3l123 5.9z"/><path fill="#276fa5" d="m-22.7 154.5 189-111.3L-.7 52z"/><path fill="#0981c0" d="M321.5 104.7 282 150.1 147.2 37.4z"/><path fill="#aad2e2" d="M11 145.8 181 93l-86.5 57.1z"/><path fill="#013a37" d="m30 397.7 291.5-41L-22.7 241z"/><path fill="#052643" d="m139.9-11 181.6 99.6V-13.9z"/><path fill="#06785e" d="M14 293.7 116.4 241l158.2 26.3z"/><path fill="#4aa7ca" d="m113.5 160.4 68.9-4.4-46.9 26.4z"/><path fill="#00334c" d="M49 170.7 182.5 150 150 120.8z"/><path fill="#062639" d="m317.1 139.9-23.4 257.8-68.8-247.6z"/><path fill="#57aad6" d="m286.4 139.9-167-86.4L224.9 150z"/><path fill="#072b3e" d="m-22.7 147.2 102.5 5.9-82 86.4z"/><path fill="#132436" d="M-22.7 183.8v74.7l276.9-16z"/><path fill="#c3e5f0" d="m216 132.6-26.3 14.6-35.2-24.9z"/><path fill="#005077" d="M200 222 46 195.5l216.8-44z"/><path fill="#075648" d="m101.8 347.9 219.7-51.3-344.2-51.2z"/><path fill="#82bbcf" d="M213.1 113.5 78.4 79.8 52 134z"/><path fill="#0b779f" d="m126.7 161.9 83.5 32.2 33.7-22z"/><path fill="#102b33" d="m295.2 371.3-318-54.2 42.6 80.6z"/><path fill="#013352" d="m321.5 150.1-54.2 32.3-109.8-30.8z"/><path fill="#005188" d="m305.4 57.9 13.2 61.5-165.5-85z"/><path fill="#5692bc" d="m-22.7 122.3 54.2 27.8L161.9 58z"/><path fill="#132b40" d="m-22.7 47.6 5.9-70.3L226.3-14z"/><path fill="#142635" d="M321.5 265.9 260 160.4l-61.5 87.9z"/><path fill="#4396b8" d="m106.2 66.7 83.5-1.5 82 60z"/><path fill="#096f5e" d="M267.3 308.3 55 260l127.5-11.7z"/><path fill="#187fbc" d="m260 142.8 51.3-4.4L235 74z"/><path fill="#aad8e3" d="m150.1 116.5-85 19 38.2 8.8z"/><path fill="#0e3437" d="m189.7 283.4-19 35.2L49 286.4z"/><path fill="#086988" d="m47.6 170.7 90.8-4.4L60.8 200z"/><path fill="#82c0dc" d="m154.5 98.9 98.2 44-35.2 8.7z"/><path fill="#043e54" d="m183.8 239.5-63-64.5-67.3 26.4z"/><path fill="#073550" d="m178 182.4-16.1 63 95.2-30.8z"/><path fill="#07374d" d="m-21.2 144.3 65.9 32.2 85-11.7z"/><path fill="#3273a2" d="m30 60.8 71.8 4.4-124.5 79z"/><path fill="#0c4370" d="M308.3 71 219 14 72.5 27z"/><path fill="#266c97" d="M192.6 68.1 82.8 60.8l114.2-25z"/><path fill="#1d4e7b" d="M49 46.1 6.7 101.8l-29.3-55.7z"/><path fill="#12303a" d="m-3.7 397.7-1.4-205L97.4 384.4z"/><path fill="#088167" d="m120.8 280.5-54.1-4.4 24.9-17.6z"/><path fill="#0d73a2" d="m292.2 109.1-95.2-22 49.8-22z"/><path fill="#5d98af" d="m169.2 161.9-27.8 7.3-11.8-13.2z"/></g></svg>